<?xml version="1.0" encoding="utf-8"?>
<!-- Generator: Adobe Illustrator 27.5.0, SVG Export Plug-In . SVG Version: 6.00 Build 0)  -->
<svg version="1.1" xmlns="http://www.w3.org/2000/svg" xmlns:xlink="http://www.w3.org/1999/xlink" x="0px" y="0px"
	 viewBox="0 0 700 500" style="enable-background:new 0 0 700 500;" xml:space="preserve">
<g id="Background_Simple">
	<g>
		<path style="fill:#92E3A9;" d="M254.794,43.897c-51.551-7.303-109.388,4.35-152.975,32.579
			C63.977,100.984,42.537,140.757,35,184.473c-10,58,25,99,34,135s-13,53-31,83s1,55,1,55h632c0,0,20-47,10-98
			c-10-50.999-54.117-81.039-52.06-108.519c1.66-22.166,17.336-43.139,24.303-63.908C683.543,96.717,574.801,16.851,491,35.473
			c-54,12-78,41-117.002,41c-39.199,0-72.161-23.839-109.667-30.994C261.179,44.878,257.999,44.351,254.794,43.897z"/>
		<path style="opacity:0.7;fill:#FFFFFF;" d="M254.794,43.897c-51.551-7.303-109.388,4.35-152.975,32.579
			C63.977,100.984,42.537,140.757,35,184.473c-10,58,25,99,34,135s-13,53-31,83s1,55,1,55h632c0,0,20-47,10-98
			c-10-50.999-54.117-81.039-52.06-108.519c1.66-22.166,17.336-43.139,24.303-63.908C683.543,96.717,574.801,16.851,491,35.473
			c-54,12-78,41-117.002,41c-39.199,0-72.161-23.839-109.667-30.994C261.179,44.878,257.999,44.351,254.794,43.897z"/>
	</g>
</g>
<g id="Window">
	<g>
		<g>
			<rect x="53.424" y="289.002" style="fill:#263238;" width="595.672" height="4.697"/>
			<g>
				<path style="fill:#263238;" d="M588.078,231.595c0.897,0.392,3.093,0.342,3.094,0.342c0.023-0.001-0.472-1.437-0.513-1.524
					c-0.482-1.008-2.005-2.671-3.244-2.504c-0.893,0.121-1.389,1.014-1.188,1.855C586.433,230.624,587.314,231.261,588.078,231.595z
					"/>
				<path style="fill:#263238;" d="M616.834,224.123c-1.243-0.134-2.721,1.57-3.175,2.59c-0.039,0.088-0.495,1.538-0.472,1.538
					c0,0,0.021,0,0.027,0c-0.235,0.267-0.485,0.556-0.751,0.878c-0.486,0.598-1.031,1.277-1.573,2.057
					c-0.544,0.778-1.113,1.638-1.631,2.598c-0.52,0.962-1.018,2-1.393,3.136c-0.004,0.013-0.007,0.027-0.011,0.04
					c0.006-0.366-0.01-1.391-0.02-1.47c-0.144-1.107-1.072-3.163-2.302-3.391c-0.886-0.164-1.636,0.531-1.707,1.392
					c-0.072,0.88,0.566,1.761,1.188,2.316c0.702,0.627,2.649,1.233,2.804,1.281c-0.347,1.085-0.615,2.227-0.823,3.397
					c-0.12,0.669-0.219,1.347-0.31,2.028c-0.005-0.317-0.011-0.6-0.016-0.64c-0.144-1.107-1.072-3.163-2.302-3.39
					c-0.886-0.164-1.636,0.53-1.707,1.392c-0.072,0.88,0.566,1.761,1.188,2.316c0.631,0.564,2.281,1.115,2.72,1.255
					c-0.032,0.262-0.067,0.522-0.098,0.784c-0.15,1.255-0.294,2.508-0.473,3.733c-0.063,0.432-0.141,0.854-0.217,1.278
					c-0.004-0.281-0.01-0.518-0.015-0.554c-0.144-1.108-1.072-3.163-2.302-3.391c-0.886-0.164-1.636,0.53-1.707,1.392
					c-0.072,0.88,0.566,1.761,1.188,2.316c0.602,0.538,2.121,1.06,2.641,1.229c-0.091,0.431-0.182,0.863-0.29,1.277
					c-0.08,0.281-0.138,0.557-0.234,0.834c-0.089,0.277-0.178,0.551-0.265,0.822c-0.188,0.516-0.379,1.05-0.574,1.549
					c-0.134,0.348-0.268,0.678-0.401,1.01c0.068-0.429,0.182-1.271,0.184-1.343c0.017-0.742-0.247-1.948-0.771-2.796
					c0.003-0.109-0.003-0.219-0.021-0.327c-0.137-0.854-0.939-1.487-1.81-1.255c-1.208,0.322-1.975,2.443-2.032,3.558
					c-0.003,0.066,0.04,0.784,0.074,1.236c-0.061-0.263-0.117-0.519-0.183-0.789c-0.127-0.535-0.269-1.064-0.42-1.635
					c-0.082-0.273-0.166-0.548-0.25-0.827c-0.078-0.278-0.195-0.561-0.292-0.845c-0.239-0.654-0.513-1.304-0.804-1.954
					c0.468-0.112,2.123-0.534,2.788-1.044c0.662-0.508,1.364-1.339,1.357-2.221c-0.006-0.865-0.703-1.613-1.599-1.515
					c-1.243,0.135-2.322,2.116-2.548,3.21c-0.014,0.068-0.088,0.871-0.12,1.313c-0.178-0.389-0.353-0.778-0.546-1.166
					c-0.556-1.119-1.153-2.235-1.744-3.35c-0.181-0.342-0.357-0.684-0.536-1.026c0.167-0.038,2.146-0.497,2.89-1.068
					c0.662-0.508,1.364-1.339,1.357-2.221c-0.006-0.864-0.703-1.613-1.598-1.515c-1.244,0.135-2.323,2.116-2.548,3.209
					c-0.017,0.083-0.121,1.238-0.133,1.533c-0.392-0.754-0.775-1.509-1.123-2.268c-0.481-1.047-0.895-2.101-1.221-3.152
					c0.078-0.018,2.145-0.488,2.908-1.073c0.662-0.508,1.364-1.339,1.357-2.221c-0.006-0.864-0.703-1.612-1.598-1.515
					c-1.243,0.135-2.322,2.116-2.548,3.209c-0.018,0.086-0.129,1.329-0.133,1.556c-0.019-0.063-0.046-0.125-0.065-0.188
					c-0.333-1.127-0.515-2.259-0.633-3.329c-0.07-0.621-0.102-1.219-0.12-1.801c0.394-0.048,2.192-0.287,2.937-0.738
					c0.714-0.432,1.502-1.181,1.593-2.059c0.089-0.86-0.522-1.68-1.422-1.682c-1.251-0.002-2.541,1.848-2.885,2.91
					c-0.019,0.058-0.144,0.666-0.229,1.111c-0.004-0.263-0.013-0.534-0.012-0.786c0.002-0.946,0.062-1.812,0.121-2.578
					c0.037-0.436,0.079-0.829,0.123-1.196c0.362-0.249,1.808-1.27,2.253-2c0.434-0.712,0.789-1.74,0.465-2.561
					c-0.318-0.804-1.237-1.251-2.037-0.837c-1.111,0.574-1.403,2.811-1.22,3.912c0.016,0.095,0.436,1.555,0.455,1.543
					c0,0,0.018-0.012,0.022-0.015c-0.049,0.353-0.097,0.732-0.142,1.146c-0.076,0.767-0.155,1.634-0.177,2.583
					c-0.025,0.949-0.025,1.98,0.073,3.066c0.097,1.089,0.254,2.23,0.568,3.384c0.004,0.013,0.009,0.026,0.013,0.039
					c-0.197-0.309-0.776-1.155-0.828-1.215c-0.731-0.845-2.639-2.047-3.79-1.558c-0.829,0.352-1.072,1.345-0.656,2.103
					c0.425,0.774,1.443,1.156,2.269,1.276c0.931,0.136,2.89-0.432,3.046-0.478c0.309,1.097,0.716,2.197,1.188,3.288
					c0.269,0.624,0.56,1.244,0.86,1.862c-0.179-0.262-0.341-0.494-0.367-0.525c-0.731-0.845-2.639-2.047-3.79-1.558
					c-0.83,0.352-1.072,1.345-0.656,2.103c0.425,0.774,1.443,1.156,2.269,1.277c0.838,0.122,2.517-0.329,2.961-0.454
					c0.117,0.236,0.232,0.473,0.35,0.708c0.567,1.13,1.138,2.254,1.665,3.375c0.186,0.395,0.354,0.79,0.524,1.186
					c-0.159-0.232-0.295-0.427-0.319-0.454c-0.731-0.845-2.639-2.047-3.79-1.558c-0.829,0.352-1.072,1.345-0.656,2.103
					c0.425,0.774,1.443,1.156,2.269,1.277c0.799,0.117,2.354-0.286,2.881-0.432c0.162,0.41,0.324,0.82,0.463,1.225
					c0.088,0.278,0.192,0.54,0.265,0.825c0.078,0.28,0.156,0.558,0.232,0.832c0.128,0.534,0.264,1.085,0.376,1.609
					c0.081,0.364,0.151,0.713,0.223,1.064c-0.18-0.395-0.549-1.161-0.588-1.222c-0.594-0.946-2.298-2.423-3.51-2.114
					c-0.873,0.223-1.264,1.167-0.967,1.979c0.303,0.829,1.251,1.362,2.049,1.606c0.878,0.268,2.823,0.023,3.065-0.009
					c0.117,0.581,0.224,1.147,0.318,1.683c0.328,1.857,0.53,3.416,0.656,4.508c0.022,0.194,0.041,0.367,0.059,0.53h-3.764
					l1.374,26.817h6.414l1.374-26.817h-3.507c0.026-0.054,0.05-0.104,0.078-0.161c0.481-1.002,1.148-2.443,1.869-4.206
					c0.229-0.556,0.463-1.156,0.697-1.773c0.235,0.049,2.16,0.44,3.057,0.238c0.813-0.184,1.799-0.644,2.163-1.448
					c0.357-0.787,0.038-1.759-0.817-2.046c-1.185-0.398-2.995,0.948-3.658,1.847c-0.039,0.053-0.399,0.676-0.62,1.072
					c0.094-0.253,0.189-0.497,0.282-0.759c0.189-0.516,0.363-1.036,0.552-1.595c0.082-0.273,0.164-0.549,0.247-0.828
					c0.089-0.275,0.147-0.576,0.223-0.866c0.161-0.677,0.292-1.371,0.407-2.073c0.452,0.164,2.066,0.726,2.901,0.667
					c0.832-0.059,1.876-0.364,2.358-1.104c0.472-0.724,0.303-1.733-0.497-2.146c-1.112-0.573-3.104,0.484-3.896,1.271
					c-0.049,0.049-0.554,0.678-0.824,1.029c0.066-0.423,0.135-0.844,0.188-1.273c0.154-1.24,0.271-2.5,0.394-3.756
					c0.037-0.385,0.079-0.768,0.12-1.151c0.16,0.06,2.064,0.769,3,0.703c0.832-0.058,1.876-0.364,2.358-1.104
					c0.472-0.724,0.303-1.733-0.497-2.146c-1.111-0.573-3.104,0.484-3.896,1.271c-0.06,0.059-0.784,0.966-0.957,1.205
					c0.089-0.845,0.186-1.686,0.315-2.511c0.177-1.139,0.413-2.247,0.721-3.303c0.075,0.028,2.058,0.777,3.017,0.71
					c0.832-0.059,1.876-0.364,2.358-1.104c0.472-0.724,0.303-1.732-0.497-2.146c-1.112-0.573-3.104,0.484-3.896,1.271
					c-0.062,0.062-0.841,1.037-0.97,1.224c0.019-0.063,0.031-0.13,0.05-0.192c0.343-1.123,0.817-2.168,1.308-3.125
					c0.284-0.557,0.588-1.073,0.893-1.568c0.355,0.177,1.987,0.97,2.857,1.005c0.833,0.033,1.905-0.156,2.465-0.838
					c0.548-0.668,0.492-1.689-0.259-2.187c-1.042-0.692-3.138,0.14-4.012,0.836c-0.047,0.038-0.488,0.476-0.804,0.8
					c0.142-0.222,0.283-0.453,0.423-0.662c0.523-0.788,1.051-1.477,1.523-2.084c0.271-0.343,0.523-0.647,0.762-0.93
					c0.439-0.008,2.209-0.061,2.983-0.425c0.755-0.355,1.618-1.016,1.801-1.88C618.251,225.099,617.73,224.22,616.834,224.123z
					 M603.066,257.531c-0.751,1.73-1.443,3.142-1.94,4.121c-0.1,0.198-0.19,0.372-0.274,0.533h-0.083
					c-0.024-0.191-0.052-0.4-0.084-0.635c-0.152-1.102-0.39-2.671-0.761-4.539c-0.116-0.59-0.252-1.219-0.397-1.863
					c0.146-0.058,0.976-0.393,1.71-0.804c0.64,0.693,2.28,1.504,2.493,1.608C603.507,256.501,603.284,257.033,603.066,257.531z"/>
				<path style="fill:#263238;" d="M610.282,232.078c0.019,0.012,0.399-1.459,0.412-1.555c0.154-1.106-0.199-3.334-1.325-3.878
					c-0.811-0.392-1.718,0.079-2.014,0.892c-0.302,0.83,0.081,1.848,0.534,2.548C608.422,230.908,610.281,232.077,610.282,232.078z"
					/>
			</g>
			<g>
				<path style="fill:#263238;" d="M118.463,234.418c0.853,0.373,2.941,0.326,2.942,0.326c0.022,0-0.449-1.366-0.488-1.449
					c-0.458-0.958-1.906-2.54-3.085-2.381c-0.849,0.115-1.321,0.964-1.129,1.764C116.899,233.494,117.736,234.101,118.463,234.418z"
					/>
				<path style="fill:#263238;" d="M145.805,227.314c-1.182-0.127-2.587,1.493-3.019,2.463c-0.037,0.084-0.47,1.462-0.449,1.462
					c0,0,0.02,0,0.025,0c-0.224,0.254-0.461,0.529-0.714,0.835c-0.463,0.568-0.98,1.214-1.496,1.956
					c-0.517,0.739-1.058,1.557-1.551,2.47c-0.495,0.915-0.968,1.902-1.325,2.982c-0.004,0.012-0.007,0.025-0.011,0.038
					c0.006-0.348-0.009-1.323-0.019-1.397c-0.137-1.053-1.019-3.008-2.189-3.224c-0.842-0.155-1.556,0.505-1.623,1.324
					c-0.068,0.837,0.538,1.674,1.13,2.202c0.667,0.596,2.519,1.173,2.666,1.218c-0.33,1.032-0.585,2.118-0.782,3.231
					c-0.114,0.636-0.208,1.28-0.295,1.928c-0.004-0.301-0.01-0.571-0.016-0.609c-0.137-1.053-1.019-3.007-2.189-3.224
					c-0.842-0.156-1.556,0.504-1.623,1.324c-0.069,0.837,0.538,1.674,1.129,2.203c0.6,0.536,2.169,1.06,2.586,1.193
					c-0.031,0.249-0.064,0.497-0.093,0.745c-0.143,1.193-0.28,2.385-0.45,3.549c-0.06,0.411-0.134,0.813-0.206,1.215
					c-0.004-0.267-0.01-0.493-0.014-0.527c-0.137-1.053-1.019-3.008-2.189-3.224c-0.842-0.156-1.556,0.504-1.623,1.323
					c-0.068,0.837,0.538,1.674,1.13,2.202c0.573,0.512,2.016,1.008,2.511,1.169c-0.087,0.41-0.173,0.821-0.275,1.214
					c-0.076,0.267-0.131,0.529-0.222,0.793c-0.085,0.263-0.169,0.524-0.252,0.782c-0.179,0.491-0.36,0.999-0.546,1.473
					c-0.127,0.331-0.254,0.644-0.381,0.96c0.064-0.408,0.173-1.209,0.175-1.277c0.016-0.705-0.234-1.852-0.733-2.658
					c0.003-0.104-0.003-0.208-0.02-0.311c-0.13-0.812-0.893-1.414-1.721-1.194c-1.149,0.306-1.878,2.323-1.932,3.383
					c-0.003,0.063,0.038,0.745,0.071,1.175c-0.058-0.25-0.111-0.493-0.174-0.75c-0.121-0.508-0.256-1.012-0.399-1.554
					c-0.078-0.259-0.158-0.521-0.238-0.786c-0.074-0.264-0.185-0.534-0.277-0.804c-0.227-0.621-0.488-1.24-0.764-1.858
					c0.445-0.107,2.019-0.508,2.651-0.993c0.629-0.483,1.296-1.273,1.29-2.112c-0.006-0.822-0.668-1.533-1.52-1.441
					c-1.182,0.128-2.208,2.012-2.423,3.052c-0.013,0.065-0.084,0.828-0.114,1.248c-0.169-0.37-0.336-0.74-0.519-1.108
					c-0.528-1.064-1.096-2.125-1.658-3.186c-0.172-0.325-0.34-0.651-0.509-0.976c0.159-0.036,2.04-0.473,2.748-1.016
					c0.629-0.483,1.297-1.273,1.291-2.112c-0.006-0.822-0.668-1.533-1.52-1.441c-1.182,0.128-2.208,2.012-2.423,3.052
					c-0.016,0.078-0.115,1.177-0.127,1.458c-0.372-0.717-0.737-1.434-1.067-2.157c-0.457-0.996-0.851-1.998-1.161-2.997
					c0.074-0.017,2.04-0.464,2.765-1.02c0.629-0.483,1.297-1.273,1.291-2.112c-0.006-0.822-0.668-1.533-1.52-1.441
					c-1.182,0.128-2.208,2.012-2.423,3.051c-0.017,0.082-0.123,1.264-0.127,1.48c-0.018-0.06-0.044-0.119-0.061-0.178
					c-0.317-1.071-0.489-2.148-0.602-3.165c-0.066-0.591-0.097-1.159-0.114-1.712c0.375-0.046,2.084-0.273,2.792-0.702
					c0.678-0.411,1.429-1.123,1.515-1.958c0.084-0.818-0.496-1.598-1.353-1.599c-1.189-0.002-2.416,1.757-2.743,2.767
					c-0.018,0.055-0.137,0.633-0.218,1.056c-0.004-0.25-0.012-0.508-0.011-0.747c0.002-0.899,0.058-1.723,0.115-2.451
					c0.035-0.414,0.076-0.788,0.117-1.137c0.344-0.237,1.72-1.208,2.143-1.901c0.413-0.677,0.751-1.655,0.442-2.435
					c-0.302-0.765-1.176-1.189-1.937-0.796c-1.056,0.546-1.334,2.673-1.16,3.72c0.015,0.09,0.414,1.479,0.432,1.467
					c0,0,0.017-0.012,0.021-0.014c-0.046,0.335-0.092,0.695-0.135,1.09c-0.072,0.729-0.147,1.554-0.168,2.456
					c-0.023,0.902-0.024,1.883,0.069,2.916c0.092,1.035,0.242,2.12,0.54,3.218c0.004,0.013,0.009,0.025,0.012,0.037
					c-0.187-0.294-0.738-1.098-0.787-1.155c-0.695-0.803-2.509-1.946-3.604-1.481c-0.789,0.335-1.02,1.279-0.624,1.999
					c0.404,0.736,1.373,1.099,2.157,1.214c0.885,0.129,2.748-0.411,2.896-0.455c0.294,1.043,0.681,2.089,1.13,3.126
					c0.256,0.593,0.533,1.183,0.818,1.77c-0.17-0.249-0.324-0.47-0.349-0.499c-0.695-0.803-2.509-1.946-3.604-1.481
					c-0.789,0.335-1.019,1.279-0.624,1.999c0.404,0.736,1.372,1.099,2.157,1.214c0.797,0.116,2.394-0.313,2.815-0.432
					c0.112,0.224,0.221,0.449,0.333,0.673c0.54,1.074,1.082,2.144,1.583,3.209c0.176,0.375,0.336,0.752,0.498,1.127
					c-0.151-0.221-0.28-0.406-0.303-0.432c-0.695-0.803-2.509-1.946-3.604-1.481c-0.788,0.335-1.019,1.279-0.623,1.999
					c0.404,0.736,1.372,1.099,2.157,1.214c0.76,0.111,2.238-0.272,2.739-0.411c0.154,0.39,0.309,0.78,0.44,1.165
					c0.084,0.265,0.183,0.514,0.252,0.784c0.074,0.267,0.148,0.53,0.221,0.791c0.122,0.508,0.251,1.032,0.357,1.53
					c0.077,0.346,0.143,0.678,0.212,1.011c-0.171-0.376-0.522-1.104-0.559-1.161c-0.565-0.899-2.185-2.304-3.338-2.01
					c-0.83,0.212-1.202,1.11-0.919,1.882c0.288,0.788,1.19,1.295,1.948,1.526c0.835,0.255,2.684,0.022,2.915-0.009
					c0.111,0.553,0.213,1.091,0.302,1.6c0.311,1.766,0.503,3.248,0.623,4.286c0.021,0.184,0.039,0.349,0.056,0.504h-3.579
					l1.307,25.498h6.098l1.307-25.498h-3.334c0.025-0.051,0.048-0.099,0.074-0.153c0.458-0.953,1.092-2.323,1.777-3.999
					c0.218-0.529,0.44-1.099,0.663-1.686c0.224,0.047,2.054,0.418,2.907,0.226c0.774-0.175,1.71-0.612,2.057-1.377
					c0.339-0.749,0.036-1.672-0.777-1.945c-1.127-0.379-2.848,0.902-3.478,1.756c-0.037,0.05-0.38,0.642-0.59,1.019
					c0.09-0.24,0.179-0.473,0.269-0.721c0.18-0.49,0.345-0.985,0.524-1.516c0.078-0.26,0.156-0.522,0.235-0.787
					c0.084-0.261,0.14-0.548,0.212-0.824c0.153-0.644,0.277-1.303,0.387-1.971c0.43,0.156,1.964,0.69,2.759,0.634
					c0.791-0.055,1.784-0.346,2.242-1.05c0.449-0.689,0.288-1.647-0.473-2.04c-1.057-0.545-2.952,0.46-3.704,1.209
					c-0.047,0.047-0.527,0.645-0.784,0.979c0.063-0.402,0.128-0.802,0.179-1.211c0.146-1.179,0.258-2.377,0.374-3.572
					c0.035-0.366,0.075-0.73,0.114-1.095c0.152,0.057,1.962,0.731,2.852,0.669c0.791-0.055,1.784-0.346,2.242-1.05
					c0.448-0.689,0.288-1.647-0.473-2.04c-1.057-0.545-2.951,0.46-3.704,1.209c-0.057,0.056-0.746,0.918-0.91,1.146
					c0.085-0.803,0.177-1.603,0.3-2.387c0.168-1.083,0.393-2.136,0.685-3.141c0.071,0.027,1.957,0.739,2.868,0.674
					c0.791-0.055,1.784-0.346,2.242-1.05c0.449-0.689,0.289-1.647-0.473-2.04c-1.057-0.545-2.951,0.46-3.704,1.209
					c-0.059,0.059-0.8,0.986-0.922,1.164c0.018-0.06,0.029-0.124,0.048-0.183c0.326-1.068,0.777-2.062,1.244-2.972
					c0.271-0.529,0.559-1.02,0.85-1.491c0.338,0.169,1.889,0.922,2.716,0.955c0.793,0.032,1.811-0.148,2.343-0.797
					c0.521-0.635,0.468-1.606-0.246-2.08c-0.991-0.658-2.984,0.133-3.814,0.795c-0.045,0.036-0.464,0.453-0.764,0.761
					c0.135-0.211,0.27-0.431,0.403-0.63c0.497-0.749,0.999-1.405,1.448-1.981c0.258-0.326,0.498-0.615,0.725-0.884
					c0.418-0.007,2.1-0.059,2.836-0.404c0.718-0.337,1.539-0.966,1.712-1.787C147.152,228.242,146.657,227.405,145.805,227.314z
					 M132.714,259.079c-0.715,1.645-1.372,2.987-1.844,3.919c-0.095,0.188-0.181,0.354-0.26,0.507h-0.079
					c-0.023-0.182-0.049-0.381-0.08-0.604c-0.144-1.047-0.371-2.54-0.724-4.316c-0.11-0.561-0.239-1.159-0.378-1.771
					c0.139-0.055,0.927-0.374,1.626-0.765c0.609,0.659,2.168,1.43,2.37,1.529C133.133,258.1,132.921,258.605,132.714,259.079z"/>
				<path style="fill:#263238;" d="M139.575,234.878c0.018,0.012,0.38-1.387,0.392-1.478c0.146-1.052-0.189-3.17-1.26-3.687
					c-0.771-0.373-1.634,0.075-1.915,0.848c-0.287,0.789,0.077,1.757,0.508,2.423C137.807,233.764,139.574,234.877,139.575,234.878z
					"/>
			</g>
			
				<line style="fill:none;stroke:#263238;stroke-linecap:round;stroke-linejoin:round;stroke-miterlimit:10;" x1="448.956" y1="291.775" x2="448.956" y2="31.395"/>
			
				<line style="fill:none;stroke:#263238;stroke-linecap:round;stroke-linejoin:round;stroke-miterlimit:10;" x1="216.073" y1="291.775" x2="216.073" y2="33.015"/>
			
				<line style="fill:none;stroke:#263238;stroke-linecap:round;stroke-linejoin:round;stroke-miterlimit:10;" x1="67.403" y1="163.955" x2="630.481" y2="163.955"/>
		</g>
		<g>
			
				<line style="fill:none;stroke:#263238;stroke-width:0.5;stroke-linecap:round;stroke-linejoin:round;stroke-miterlimit:10;" x1="60.343" y1="255.926" x2="54.949" y2="259.25"/>
			
				<line style="fill:none;stroke:#263238;stroke-width:0.5;stroke-linecap:round;stroke-linejoin:round;stroke-miterlimit:10;" x1="151.253" y1="199.9" x2="67.589" y2="251.46"/>
			
				<line style="fill:none;stroke:#263238;stroke-width:0.5;stroke-linecap:round;stroke-linejoin:round;stroke-miterlimit:10;" x1="162.292" y1="203.384" x2="95.262" y2="244.692"/>
			
				<line style="fill:none;stroke:#263238;stroke-width:0.5;stroke-linecap:round;stroke-linejoin:round;stroke-miterlimit:10;" x1="191.566" y1="185.343" x2="171.322" y2="197.819"/>
		</g>
		<g>
			
				<line style="fill:none;stroke:#263238;stroke-width:0.5;stroke-linecap:round;stroke-linejoin:round;stroke-miterlimit:10;" x1="473.837" y1="253.125" x2="467.813" y2="256.838"/>
			
				<line style="fill:none;stroke:#263238;stroke-width:0.5;stroke-linecap:round;stroke-linejoin:round;stroke-miterlimit:10;" x1="575.389" y1="190.541" x2="481.932" y2="248.136"/>
			
				<line style="fill:none;stroke:#263238;stroke-width:0.5;stroke-linecap:round;stroke-linejoin:round;stroke-miterlimit:10;" x1="587.72" y1="194.432" x2="512.845" y2="240.576"/>
			
				<line style="fill:none;stroke:#263238;stroke-width:0.5;stroke-linecap:round;stroke-linejoin:round;stroke-miterlimit:10;" x1="620.421" y1="174.279" x2="597.807" y2="188.216"/>
		</g>
	</g>
</g>
<g id="Table_2">
	<g>
		<g>
			<g>
				
					<rect x="431.913" y="265.49" transform="matrix(-1 -1.224647e-16 1.224647e-16 -1 905.6293 579.2697)" style="fill:#FFFFFF;stroke:#263238;stroke-linecap:round;stroke-linejoin:round;stroke-miterlimit:10;" width="41.802" height="48.289"/>
				<polygon style="fill:#D1D1D1;stroke:#263238;stroke-linecap:round;stroke-linejoin:round;stroke-miterlimit:10;" points="
					476.959,315.942 429.751,315.942 429.751,272.337 452.094,272.337 				"/>
			</g>
			<g>
				<g>
					<path style="fill:#D1D1D1;stroke:#263238;stroke-linecap:round;stroke-linejoin:round;stroke-miterlimit:10;" d="
						M419.626,318.368h27.006c1.079,0,1.954-0.875,1.954-1.954c0-1.079-0.875-1.954-1.954-1.954h-27.006
						c-1.297,0-2.544-0.551-3.417-1.511c-1.075-1.183-1.461-2.809-1.03-4.347l9.581-34.332c0.29-1.039-0.317-2.117-1.357-2.407
						c-1.035-0.292-2.117,0.317-2.407,1.357l-9.581,34.332c-0.792,2.842-0.081,5.841,1.904,8.026
						C414.931,317.351,417.23,318.368,419.626,318.368z"/>
				</g>
				<g>
					
						<rect x="427.693" y="228.468" transform="matrix(-0.9929 0.119 -0.119 -0.9929 890.4088 483.3856)" style="fill:#FFFFFF;stroke:#263238;stroke-linecap:round;stroke-linejoin:round;stroke-miterlimit:10;" width="6.159" height="79.621"/>
					<path style="fill:#D1D1D1;stroke:#263238;stroke-linecap:round;stroke-linejoin:round;stroke-miterlimit:10;" d="
						M422.975,229.117c0,0-10.859,38.76,9.479,79.055L422.975,229.117z"/>
				</g>
			</g>
			<g>
				<g>
					<defs>
						<rect id="XMLID_4_" x="396.631" y="318.193" width="246.971" height="139.28"/>
					</defs>
					<use xlink:href="#XMLID_4_"  style="overflow:visible;fill:#263238;"/>
					<clipPath id="XMLID_00000068649585308167502690000007264837631558521759_">
						<use xlink:href="#XMLID_4_"  style="overflow:visible;"/>
					</clipPath>
					
						<rect x="396.631" y="318.193" style="clip-path:url(#XMLID_00000068649585308167502690000007264837631558521759_);fill:#FFFFFF;stroke:#263238;stroke-linecap:round;stroke-linejoin:round;stroke-miterlimit:10;" width="246.971" height="139.28"/>
					
						<use xlink:href="#XMLID_4_"  style="overflow:visible;fill:none;stroke:#263238;stroke-linecap:round;stroke-linejoin:round;stroke-miterlimit:10;"/>
				</g>
				<rect x="396.746" y="321.537" style="fill:#263238;" width="246.665" height="3.853"/>
				
					<rect x="391.235" y="315.91" style="fill:#FFFFFF;stroke:#263238;stroke-linecap:round;stroke-linejoin:round;stroke-miterlimit:10;" width="254.165" height="6.089"/>
			</g>
		</g>
	</g>
</g>
<g id="Table_1">
	<g>
		<g>
			<g>
				<path style="fill:#263238;stroke:#263238;stroke-linecap:round;stroke-linejoin:round;stroke-miterlimit:10;" d="M60.144,206.6
					l35.261,0.291c0,0,2.331-0.291,2.914,1.457c0,0,6.12,15.444,6.411,20.981c0.291,5.537-1.166,4.663,1.166,11.948
					c2.331,7.285,9.034,24.478,12.822,38.467c5.092,18.8,6.418,38.753,6.741,58.157c0.052,3.114,1.913,29.907-2.933,29.907
					c-4.023,0-41.121,4.917-41.568-2.235c-1.782-28.506,3.367-56.359-6.535-84.083c-3.845-10.767-8.255-22.138-11.517-33.402
					c-3.276-11.31-3.833-22.969-5.967-34.495C55.482,205.725,60.144,206.6,60.144,206.6z"/>
				<path style="fill:#D1D1D1;stroke:#263238;stroke-linecap:round;stroke-linejoin:round;stroke-miterlimit:10;" d="
					M56.691,210.091c0.347-4.069,3.453-3.491,3.453-3.491l35.261,0.291c0,0,2.331-0.291,2.914,1.457c0,0,6.12,15.445,6.411,20.981
					c0.113,2.141-0.035,3.322-0.125,4.389l-0.749,1.148c0,0-1.166,10.199-15.153,10.782c-13.988,0.583-21.856-5.828-24.77-11.948
					c-2.914-6.12-4.08-16.027-6.411-21.856C57.287,211.26,56.999,210.675,56.691,210.091z"/>
			</g>
			<path style="fill:#D1D1D1;stroke:#263238;stroke-linecap:round;stroke-linejoin:round;stroke-miterlimit:10;" d="M64.865,221.473
				c2.365,8.513,0.946,10.878,3.311,25.539c2.365,14.661,10.878,31.215,14.188,46.349c3.311,15.134,1.892,68.577,1.419,70.942
				c-0.18,0.901-0.223,2.35-0.207,3.8c-1.587-0.593-2.549-1.414-2.619-2.529c-1.782-28.506,3.366-56.359-6.535-84.083
				c-3.845-10.766-8.256-22.138-11.517-33.402c-3.276-11.31-3.833-22.969-5.967-34.495c-0.895-4.835,0.519-6.364,1.743-6.828
				l0.035,0.046C58.717,206.812,62.5,212.96,64.865,221.473z"/>
		</g>
		<path style="fill:#263238;stroke:#263238;stroke-linecap:round;stroke-linejoin:round;stroke-miterlimit:10;" d="M132.969,436.664
			l0.236-0.189v-32.917h-4.729v-20.81h17.499v20.81h-4.729v33.483l41.856,13.339v3.311c0,2.09-1.694,3.784-3.784,3.784
			c-2.09,0-3.783-1.694-3.783-3.784v-0.473l-34.998-4.07v5.015c0,1.828-1.482,3.311-3.311,3.311c-1.828,0-3.311-1.482-3.311-3.311
			v-5.18l-36.417,4.234v0.473c0,2.09-1.694,3.784-3.784,3.784c-2.089,0-3.783-1.694-3.783-3.784v-3.311L132.969,436.664z"/>
		<path style="fill:#263238;stroke:#263238;stroke-linecap:round;stroke-linejoin:round;stroke-miterlimit:10;" d="M82.276,386.581
			h105.53c2.209,0,4-1.791,4-4v-16.136c0-2.209-1.791-4-4-4H82.276c-2.209,0-4,1.791-4,4v16.136
			C78.276,384.79,80.067,386.581,82.276,386.581z"/>
	</g>
	<g>
		<g>
			<g>
				
					<rect x="219.829" y="265.49" style="fill:#FFFFFF;stroke:#263238;stroke-linecap:round;stroke-linejoin:round;stroke-miterlimit:10;" width="41.802" height="48.289"/>
				<polygon style="fill:#D1D1D1;stroke:#263238;stroke-linecap:round;stroke-linejoin:round;stroke-miterlimit:10;" points="
					216.586,315.942 263.794,315.942 263.794,272.337 241.451,272.337 				"/>
			</g>
			<g>
				<g>
					<path style="fill:#D1D1D1;stroke:#263238;stroke-linecap:round;stroke-linejoin:round;stroke-miterlimit:10;" d="
						M273.918,318.368h-27.006c-1.079,0-1.954-0.875-1.954-1.954c0-1.079,0.874-1.954,1.954-1.954h27.006
						c1.297,0,2.544-0.551,3.417-1.511c1.075-1.183,1.461-2.809,1.03-4.347l-9.581-34.332c-0.29-1.039,0.317-2.117,1.357-2.407
						c1.035-0.292,2.117,0.317,2.407,1.357l9.581,34.332c0.792,2.842,0.081,5.841-1.904,8.026
						C278.613,317.351,276.315,318.368,273.918,318.368z"/>
				</g>
				<g>
					
						<rect x="259.694" y="228.468" transform="matrix(0.9929 0.119 -0.119 0.9929 33.7938 -29.3648)" style="fill:#FFFFFF;stroke:#263238;stroke-linecap:round;stroke-linejoin:round;stroke-miterlimit:10;" width="6.159" height="79.621"/>
					<path style="fill:#D1D1D1;stroke:#263238;stroke-linecap:round;stroke-linejoin:round;stroke-miterlimit:10;" d="
						M270.57,229.117c0,0,10.859,38.76-9.479,79.055L270.57,229.117z"/>
				</g>
			</g>
			<g>
				<g>
					<defs>
						
							<rect id="XMLID_1_" x="49.943" y="318.193" transform="matrix(-1 -1.224647e-16 1.224647e-16 -1 346.8573 775.6664)" width="246.971" height="139.28"/>
					</defs>
					<use xlink:href="#XMLID_1_"  style="overflow:visible;fill:#263238;"/>
					<clipPath id="XMLID_00000092458138591418345840000005754327000373799833_">
						<use xlink:href="#XMLID_1_"  style="overflow:visible;"/>
					</clipPath>
					
						<rect x="49.943" y="318.193" transform="matrix(-1 -1.224647e-16 1.224647e-16 -1 346.8573 775.6664)" style="clip-path:url(#XMLID_00000092458138591418345840000005754327000373799833_);fill:#FFFFFF;stroke:#263238;stroke-linecap:round;stroke-linejoin:round;stroke-miterlimit:10;" width="246.971" height="139.28"/>
					
						<use xlink:href="#XMLID_1_"  style="overflow:visible;fill:none;stroke:#263238;stroke-linecap:round;stroke-linejoin:round;stroke-miterlimit:10;"/>
				</g>
				
					<rect x="50.133" y="321.537" transform="matrix(-1 -1.224647e-16 1.224647e-16 -1 346.9321 646.9268)" style="fill:#263238;" width="246.665" height="3.853"/>
				
					<rect x="48.145" y="315.91" transform="matrix(-1 -1.224647e-16 1.224647e-16 -1 350.4546 637.9085)" style="fill:#FFFFFF;stroke:#263238;stroke-linecap:round;stroke-linejoin:round;stroke-miterlimit:10;" width="254.165" height="6.089"/>
			</g>
		</g>
	</g>
</g>
<g id="Character_3">
	<g>
		<g>
			<g>
				<path style="fill:#263238;stroke:#263238;stroke-linecap:round;stroke-linejoin:round;stroke-miterlimit:10;" d="M574.618,206.6
					l-35.26,0.291c0,0-2.331-0.291-2.914,1.457c0,0-6.12,15.444-6.411,20.981c-0.291,5.537,1.166,4.663-1.166,11.948
					c-2.331,7.285-9.034,24.478-12.822,38.467c-5.092,18.8-6.418,38.753-6.741,58.157c-0.052,3.114-1.913,29.907,2.933,29.907
					c4.023,0,41.121,4.917,41.568-2.235c1.782-28.506-3.367-56.359,6.535-84.083c3.845-10.767,8.255-22.138,11.517-33.402
					c3.276-11.31,3.833-22.969,5.967-34.495C579.281,205.725,574.618,206.6,574.618,206.6z"/>
				<path style="fill:#D1D1D1;stroke:#263238;stroke-linecap:round;stroke-linejoin:round;stroke-miterlimit:10;" d="
					M578.071,210.091c-0.347-4.069-3.453-3.491-3.453-3.491l-35.26,0.291c0,0-2.331-0.291-2.914,1.457c0,0-6.12,15.445-6.411,20.981
					c-0.113,2.141,0.035,3.322,0.125,4.389l0.749,1.148c0,0,1.166,10.199,15.153,10.782c13.988,0.583,21.856-5.828,24.77-11.948
					c2.914-6.12,4.08-16.027,6.411-21.856C577.475,211.26,577.764,210.675,578.071,210.091z"/>
			</g>
			<path style="fill:#D1D1D1;stroke:#263238;stroke-linecap:round;stroke-linejoin:round;stroke-miterlimit:10;" d="
				M569.897,221.473c-2.365,8.513-0.946,10.878-3.311,25.539c-2.365,14.661-10.878,31.215-14.188,46.349
				c-3.311,15.134-1.892,68.577-1.419,70.942c0.18,0.901,0.223,2.35,0.207,3.8c1.587-0.593,2.549-1.414,2.619-2.529
				c1.782-28.506-3.366-56.359,6.535-84.083c3.845-10.766,8.255-22.138,11.518-33.402c3.276-11.31,3.833-22.969,5.967-34.495
				c0.895-4.835-0.519-6.364-1.744-6.828l-0.034,0.046C576.046,206.812,572.262,212.96,569.897,221.473z"/>
		</g>
		<path style="fill:#263238;stroke:#263238;stroke-linecap:round;stroke-linejoin:round;stroke-miterlimit:10;" d="M501.793,436.664
			l-0.236-0.189v-32.917h4.729v-20.81h-17.499v20.81h4.729v33.483l-41.856,13.339v3.311c0,2.09,1.694,3.784,3.784,3.784
			c2.09,0,3.784-1.694,3.784-3.784v-0.473l34.998-4.07v5.015c0,1.828,1.482,3.311,3.311,3.311c1.828,0,3.311-1.482,3.311-3.311
			v-5.18l36.417,4.234v0.473c0,2.09,1.694,3.784,3.784,3.784c2.089,0,3.784-1.694,3.784-3.784v-3.311L501.793,436.664z"/>
		<path style="fill:#263238;stroke:#263238;stroke-linecap:round;stroke-linejoin:round;stroke-miterlimit:10;" d="M552.487,386.581
			h-105.53c-2.209,0-4-1.791-4-4v-16.136c0-2.209,1.791-4,4-4h105.53c2.209,0,4,1.791,4,4v16.136
			C556.487,384.79,554.696,386.581,552.487,386.581z"/>
	</g>
	<g>
		<g>
			<path style="fill:#FFFFFF;stroke:#263238;stroke-miterlimit:10;" d="M434.641,336.045c0,0-17.432,0.781-18.993,10.667
				c-1.561,9.887,41.629,69.728,45.011,71.549c3.382,1.821,4.683,11.968,4.683,16.131c0,4.163-0.781,5.724-3.382,9.106
				c-2.602,3.382,0.781,2.342,3.643,1.561c2.862-0.781,4.163,0.26,7.545-6.244c3.382-6.505,2.862-7.025,4.683-10.407
				c1.821-3.382,3.122-8.065,0.26-10.407c-2.862-2.342-11.968-6.244-13.269-7.285c-1.301-1.041-18.993-57.239-18.993-57.239
				s15.611,8.586,25.237,11.448c9.627,2.862,16.391,5.204,25.758,4.423c9.366-0.78,1.041-19.513-12.749-25.758
				C470.285,337.346,434.641,336.045,434.641,336.045z"/>
			<path style="fill:#949494;stroke:#263238;stroke-linecap:round;stroke-linejoin:round;stroke-miterlimit:10;" d="M484.075,343.59
				c-8.16-3.695-23.973-5.659-35.524-6.647l3.707,19.9c5.409,2.732,13.143,6.398,18.808,8.082
				c9.627,2.862,16.391,5.204,25.758,4.423C506.19,368.567,497.864,349.834,484.075,343.59z"/>
			<path style="fill:#92E3A9;stroke:#263238;stroke-linecap:round;stroke-linejoin:round;stroke-miterlimit:10;" d="
				M478.091,418.001c-0.886-0.725-2.371-1.599-4.036-2.492c0,0.724,0,1.475,0,2.226c0,4-4.667,16-4.667,16l-4.075,1.881
				c-0.157,3.281-1.024,4.855-3.353,7.883c-2.602,3.382,0.781,2.342,3.643,1.561c2.862-0.781,4.163,0.26,7.545-6.244
				c3.382-6.504,2.862-7.025,4.683-10.407C479.652,425.026,480.953,420.343,478.091,418.001z"/>
		</g>
		<path style="fill:#FFFFFF;stroke:#263238;stroke-linecap:round;stroke-linejoin:round;stroke-miterlimit:10;" d="M497.388,258.051
			c0,0-3.667-1.667-10.333,5c-6.667,6.667-21.333,50.018-20.333,53.018s6,3.667,8,2c2-1.667,12.667-27.685,12.667-27.685
			l12.667-26.667"/>
		<path style="fill:#92E3A9;stroke:#263238;stroke-linecap:round;stroke-linejoin:round;stroke-miterlimit:10;" d="M500.055,263.717
			l-2.667-5.667c0,0-3.667-1.667-10.333,5c-1.8,1.8-4.183,5.867-6.683,10.893l10.782,8.512L500.055,263.717z"/>
		<g>
			<path style="fill:#92E3A9;stroke:#263238;stroke-linecap:round;stroke-linejoin:round;stroke-miterlimit:10;" d="M490.901,272.99
				c-0.689,1.753-1.326,3.389-1.846,4.727c-2.333,6-4.333,9.333-3.333,13.667c1,4.333,5,11.333,5,11.333l-12,21.685l53.333,12
				l1.333-32.018c0,0,16-33.333,16.333-38.667c0.333-5.333-8.667-7.667-16.667-10.667c-8-3-12-4-12-4l-7,1
				c0,0-15.333,4.333-16.667,6c-0.203,0.254-0.483,0.747-0.821,1.423"/>
			<g>
				
					<line style="fill:none;stroke:#263238;stroke-linecap:round;stroke-linejoin:round;stroke-miterlimit:10;" x1="512.149" y1="304.803" x2="514.015" y2="305.923"/>
				
					<line style="fill:none;stroke:#263238;stroke-linecap:round;stroke-linejoin:round;stroke-miterlimit:10;" x1="504.217" y1="300.045" x2="509.285" y2="303.086"/>
			</g>
		</g>
		<g>
			<path style="fill:#FFFFFF;stroke:#263238;stroke-linecap:round;stroke-linejoin:round;stroke-miterlimit:10;" d="
				M480.976,328.383c0,0-6.207-6.05-9.128-6.05c-2.921,0-8.945,3.104-8.945,3.104s9.675,1.278,12.049,1.46s5.294,2.921,7.485,1.278
				L480.976,328.383z"/>
			<path style="fill:#FFFFFF;stroke:#263238;stroke-linecap:round;stroke-linejoin:round;stroke-miterlimit:10;" d="
				M535.721,275.384l-11.667,40.667l-43.079,6.648l0.365,5.112c0,0,40.557,4.098,43.714,3.907c11-0.667,9.483-4.85,14-14
				c1.801-3.648,15.318-47.06,14.667-49.667c-2-8-11.667-9.667-11.667-9.667"/>
			<path style="fill:#92E3A9;stroke:#263238;stroke-linecap:round;stroke-linejoin:round;stroke-miterlimit:10;" d="
				M535.721,275.384l-3.459,12.057c3.391-1.482,9.455-3.324,17.27-2.425c2.532-8.684,4.444-15.946,4.189-16.966
				c-2-8-11.667-9.667-11.667-9.667"/>
		</g>
		<path style="fill:#FFFFFF;stroke:#263238;stroke-linecap:round;stroke-linejoin:round;stroke-miterlimit:10;" d="M509.415,251.088
			c0,0,0.398,4.179-0.398,7.76c-0.796,3.582-4.577,13.929-2.985,13.929c1.592,0,17.312-14.526,19.302-16.516
			c1.99-1.99,4.378-16.516,4.378-16.516S514.588,250.292,509.415,251.088z"/>
		<path style="fill:#263238;stroke:#263238;stroke-linecap:round;stroke-linejoin:round;stroke-miterlimit:10;" d="M509.257,257.52
			l12.22-8.285l-7.722,0.249c-1.729,0.837-3.255,1.437-4.34,1.604C509.415,251.088,509.721,254.309,509.257,257.52z"/>
		<g>
			<path style="fill:#FFFFFF;stroke:#263238;stroke-miterlimit:10;" d="M531.167,336.565c0,0-66.606-13.009-81.696-14.05
				c-15.09-1.041-23.676-2.342-23.156,4.683c0.52,7.025,29.14,89.502,31.221,93.925c0,0-1.301,11.968-2.602,16.131
				c-1.301,4.163-6.505,10.667-7.025,12.228c-0.52,1.561,13.269-1.821,16.651-4.943c3.382-3.122,3.903-9.367,8.586-15.351
				c4.683-5.984,2.602-8.586-0.26-10.407c-2.862-1.821-6.504-6.504-6.504-6.504s-1.561-4.163-3.122-12.228
				c-1.561-8.066-5.464-46.832-5.464-46.832s16.131,14.05,34.604,15.871c18.473,1.821,29.14-2.081,37.726-10.927
				C538.713,349.314,531.167,336.565,531.167,336.565z"/>
			<path style="fill:none;stroke:#263238;stroke-linecap:round;stroke-linejoin:round;stroke-miterlimit:10;" d="M457.797,353.216
				c0,0-0.226-9.405-4.404-14.888"/>
			<path style="fill:#92E3A9;stroke:#263238;stroke-linecap:round;stroke-linejoin:round;stroke-miterlimit:10;" d="
				M472.887,418.782c-0.222-0.142-0.45-0.305-0.68-0.478c-0.296,1.097-0.757,2.216-1.486,3.098c-2.166,2.62-5,15-7.667,17
				c-2.189,1.642-7.29,1.263-9.05,1.074c-1.966,3.956-5.66,8.703-6.094,10.007c-0.52,1.561,13.269-1.821,16.651-4.944
				c3.382-3.122,3.903-9.366,8.586-15.35C477.831,423.205,475.749,420.603,472.887,418.782z"/>
			<path style="fill:#949494;stroke:#263238;stroke-linecap:round;stroke-linejoin:round;stroke-miterlimit:10;" d="
				M457.797,353.216c0,0,16.131,14.05,34.604,15.871c18.473,1.821,29.14-2.081,37.726-10.927c8.586-8.846,1.041-21.595,1.041-21.595
				s-66.606-13.009-81.696-14.05C449.471,322.515,462.539,334.031,457.797,353.216z"/>
		</g>
		<g>
			<path style="fill:#FFFFFF;stroke:#263238;stroke-linecap:round;stroke-linejoin:round;stroke-miterlimit:10;" d="
				M469.055,310.137c0,0-3.333,5-3.667,8.667c-0.333,3.667,4.816,7.348,9.856,9.215c5.74,2.126,15.559,4.282,15.559,4.282
				s-1.078,2.357-0.551,6.322c0.527,3.965,3.51,4.429,3.51,4.429s-1.268,1.35-1.172,2.074c0.096,0.724,1.398,2.208,2.533,2.425
				c2.165,0.416,4.479-0.546,5.999-2.079c0.843-0.851,2.91-3.614,2.846-4.807c-0.143-2.681-3.187-6.666-3.187-6.666
				s-2.404-4.297-7.425-6.655c-5.021-2.358-18.635-13.207-18.635-13.207l-0.804-0.568"/>
			<path style="fill:none;stroke:#263238;stroke-linecap:round;stroke-linejoin:round;stroke-miterlimit:10;" d="M493.763,343.051
				c0,0,1,1.785,2.471,1.774"/>
		</g>
		<g>
			<path style="fill:#263238;stroke:#263238;stroke-linecap:round;stroke-linejoin:round;stroke-miterlimit:10;" d="M502.79,226.476
				c0,0-9.172-9.172-5.095-14.606c4.076-5.435,27.515-8.492,38.045-7.133c10.53,1.359,12.229,36.346,10.87,40.083
				c-1.359,3.736-13.587,6.454-16.984,5.775c-3.397-0.679-25.137,1.359-30.232-1.359c-5.095-2.718-8.492-8.492-8.492-8.492
				s3.397,2.038,8.152-2.038C503.809,234.629,502.79,226.476,502.79,226.476z"/>
			<path style="fill:#FFFFFF;stroke:#263238;stroke-linecap:round;stroke-linejoin:round;stroke-miterlimit:10;" d="
				M514.679,219.003c0,0-11.889,2.717-12.229,5.775c-0.34,3.057-5.095,24.118-0.679,26.156c4.416,2.038,18.683,0.679,23.099-3.057
				c4.416-3.736,7.133-8.152,7.133-8.152s1.019,1.019,2.378-1.698c1.359-2.717,1.019-6.794,1.019-6.794s-3.736,5.435-8.832,0.679
				C521.472,227.156,514.679,219.003,514.679,219.003z"/>
			<g>
				<path style="fill:#263238;" d="M505.704,229.497c0,0.856-0.462,1.549-1.033,1.549s-1.033-0.694-1.033-1.549
					c0-0.856,0.462-1.549,1.033-1.549S505.704,228.641,505.704,229.497z"/>
				<path style="fill:#263238;" d="M514.977,231.237c0,0.856-0.463,1.549-1.033,1.549c-0.57,0-1.033-0.694-1.033-1.549
					s0.463-1.549,1.033-1.549C514.515,229.688,514.977,230.382,514.977,231.237z"/>
				<path style="fill:none;stroke:#263238;stroke-linecap:round;stroke-linejoin:round;stroke-miterlimit:10;" d="M508.655,228.135
					c0,0-0.516,3.099-1.549,3.873c-1.033,0.775-3.874,2.582-4.132,4.132c-0.258,1.549,5.423,2.582,5.423,2.582"/>
				<path style="fill:none;stroke:#263238;stroke-linecap:round;stroke-linejoin:round;stroke-miterlimit:10;" d="M504.387,241.566
					c0,0,3.099,2.324,6.198,0.258"/>
				<path style="fill:none;stroke:#263238;stroke-linecap:round;stroke-linejoin:round;stroke-miterlimit:10;" d="M512.007,228.145
					c0,0,3.357-1.033,5.681,1.808"/>
				<path style="fill:none;stroke:#263238;stroke-linecap:round;stroke-linejoin:round;stroke-miterlimit:10;" d="M507.617,226.854
					c0,0-1.291-1.808-3.874,0"/>
			</g>
			<path style="fill:#263238;stroke:#263238;stroke-linecap:round;stroke-linejoin:round;stroke-miterlimit:10;" d="
				M530.932,244.422c0,0-5.269,3.327-7.487,3.882c-2.218,0.555-3.05,0.555-3.05,0.555s0,1.664,8.319,2.496
				c8.319,0.832,14.419-1.109,16.36-5.269"/>
		</g>
	</g>
</g>
<g id="Character_2">
	<g>
		<path style="fill:#666666;stroke:#263238;stroke-linecap:round;stroke-linejoin:round;stroke-miterlimit:10;" d="M365.383,435.952
			c0,0,1.93,7.36,3.84,9.062c1.437,1.28,4.268,4.379,7.907,6.557c1.12,0.67,5.692,1.88,6.033,2.69
			c0.643,1.528-0.518,3.212-2.176,3.212h-32.839l0.235-19.952L365.383,435.952z"/>
		<path style="fill:#263238;stroke:#263238;stroke-linecap:round;stroke-linejoin:round;stroke-miterlimit:10;" d="M311.414,268.224
			l-0.331,24.459l-0.805,69.438c0,0,0.402,21.577,1.207,25.108c0.805,3.531-0.805,48.723-0.805,48.723l16.5,1.569l6.036-65.2
			l9.256-64.731l4.829,65.908l1.002,64.573l17.079-2.119l1.236-51.469c0,0,6.036-47.469,6.036-63.161c0-15.692,0-38.446,0-38.446
			l1.176-13.789L311.414,268.224z"/>
		<path style="fill:#666666;stroke:#263238;stroke-linecap:round;stroke-linejoin:round;stroke-miterlimit:10;" d="M310.681,435.952
			c0,0-1.93,7.36-3.84,9.062c-1.437,1.28-4.268,4.379-7.907,6.557c-1.12,0.67-5.692,1.88-6.033,2.69
			c-0.643,1.528,0.518,3.212,2.176,3.212h32.339l-0.235-19.952L310.681,435.952z"/>
		<path style="fill:#FFFFFF;stroke:#263238;stroke-linecap:round;stroke-linejoin:round;stroke-miterlimit:10;" d="M432.168,166.629
			c-0.823-0.739-2.119-0.568-2.796,0.308l-4.542,5.877l2.633-5.266c0.542-1.084,0.259-2.461-0.764-3.111
			c-0.333-0.212-0.738-0.354-1.223-0.354c-1.94,0-4.527,6.791-4.527,6.791l-5.498,8.731l-1.617-1.617c0,0,2.587-5.497,1.617-7.114
			c-0.97-1.617-3.88-2.264-3.88,0s-2.264,4.527-2.91,6.144c-0.647,1.617,3.234,14.229,3.234,14.229l-20.373,23.93
			c0,0-8.408-31.044-10.348-32.014c-1.94-0.97-25.87-5.497-25.87-5.497h-9.353h-14.875c0,0-23.93,4.527-25.87,5.497
			c-1.94,0.97-10.348,32.014-10.348,32.014l-20.373-23.93c0,0,3.881-12.612,3.234-14.229c-0.647-1.617-2.91-3.881-2.91-6.144
			s-2.91-1.617-3.881,0c-0.97,1.617,1.617,7.114,1.617,7.114l-1.617,1.617l-5.497-8.731c0,0-2.587-6.791-4.527-6.791
			c-0.485,0-0.889,0.142-1.223,0.354c-1.023,0.651-1.305,2.027-0.763,3.111l2.633,5.266l-4.541-5.877
			c-0.677-0.876-1.973-1.047-2.796-0.308c-0.5,0.449-0.874,1.09-0.747,1.981c0.323,2.264,2.712,6.635,2.712,6.635
			s-3.035,4.683-2.065,6.3c0.97,1.617,3.234,4.204,3.234,4.204s-1.617,1.294,2.264,5.821c3.88,4.527,6.468,5.497,6.468,5.497
			s10.995,24.577,15.522,31.368c4.527,6.791,16.169,13.905,17.786,13.905c1.456,0,10.506-13.619,12.299-16.34
			c0.18,5.556-2.042,36.672-1.411,39.511c0.061,0.273,0.143,0.55,0.234,0.826l0.15,3.443c0,0,0,1.779,2.49,2.49
			c1.324,0.378,16.03,0.354,30.044,0.249c14.014,0.105,28.72,0.13,30.044-0.249c2.49-0.711,2.49-2.49,2.49-2.49l0.15-3.443
			c0.091-0.276,0.173-0.552,0.234-0.826c0.631-2.839-1.591-33.955-1.411-39.511c1.793,2.721,10.844,16.34,12.299,16.34
			c1.617,0,13.259-7.114,17.786-13.905c4.527-6.791,15.522-31.368,15.522-31.368s2.587-0.97,6.468-5.497
			c3.881-4.527,2.264-5.821,2.264-5.821s2.264-2.587,3.234-4.204c0.97-1.617-2.065-6.3-2.065-6.3s2.388-4.372,2.712-6.635
			C433.042,167.719,432.668,167.078,432.168,166.629z"/>
		<path style="fill:#FFFFFF;stroke:#263238;stroke-linecap:round;stroke-linejoin:round;stroke-miterlimit:10;" d="M408.559,195.165
			l-17.037,20.012c0,0-8.408-31.044-10.348-32.014c-1.94-0.97-25.87-5.497-25.87-5.497h-9.353h-14.875c0,0-23.93,4.527-25.87,5.497
			c-1.94,0.97-10.348,32.014-10.348,32.014l-17.087-20.071c-3.131,3.073-7.608,4.209-10.489,4.626
			c2.974,6.54,10.704,23.282,14.318,28.703c4.527,6.791,16.169,13.905,17.786,13.905c1.456,0,10.506-13.619,12.299-16.34
			c0.18,5.556-2.042,36.672-1.411,39.511c0.061,0.273,0.143,0.55,0.234,0.826l0.15,3.443c0,0,0,1.779,2.49,2.49
			c1.324,0.378,16.03,0.354,30.044,0.249c14.014,0.105,28.72,0.13,30.044-0.249c2.49-0.711,2.49-2.49,2.49-2.49l0.15-3.443
			c0.091-0.276,0.173-0.552,0.234-0.826c0.631-2.839-1.591-33.955-1.411-39.511c1.793,2.721,10.844,16.34,12.299,16.34
			c1.617,0,13.259-7.114,17.786-13.905c3.135-4.702,9.369-17.928,12.908-25.621C412.428,201.393,409.338,196.533,408.559,195.165z"
			/>
		<polygon style="fill:#263238;stroke:#263238;stroke-linecap:round;stroke-linejoin:round;stroke-miterlimit:10;" points="
			311.684,226 310.549,206.145 307.398,231.825 		"/>
		<polygon style="fill:#263238;stroke:#263238;stroke-linecap:round;stroke-linejoin:round;stroke-miterlimit:10;" points="
			374.696,226 374.553,207.295 378.439,230.825 		"/>
		<path style="fill:#FFFFFF;stroke:#263238;stroke-linecap:round;stroke-linejoin:round;stroke-miterlimit:10;" d="M408.559,195.165
			l-4.557,5.353c0.853,3.253,3.321,7.988,10.416,9.309c1.207-2.55,2.334-4.977,3.271-7.013
			C412.428,201.393,409.338,196.533,408.559,195.165z"/>
		<path style="fill:#FFFFFF;stroke:#263238;stroke-linecap:round;stroke-linejoin:round;stroke-miterlimit:10;" d="M255.082,176.694
			c0,0,5.174-5.174,7.114-2.587c1.94,2.587-2.91,6.467-2.91,6.467l1.94,2.264"/>
		<path style="fill:#FFFFFF;stroke:#263238;stroke-linecap:round;stroke-linejoin:round;stroke-miterlimit:10;" d="M257.345,185.749
			c0,0,3.88-4.527,6.467-3.88c2.587,0.647-1.293,5.821-1.293,5.821s4.204-0.323,7.114,3.557"/>
		<path style="fill:#FFFFFF;stroke:#263238;stroke-linecap:round;stroke-linejoin:round;stroke-miterlimit:10;" d="M431.298,176.694
			c0,0-5.174-5.174-7.114-2.587c-1.94,2.587,2.91,6.467,2.91,6.467l-1.94,2.264"/>
		<path style="fill:#FFFFFF;stroke:#263238;stroke-linecap:round;stroke-linejoin:round;stroke-miterlimit:10;" d="M429.034,185.749
			c0,0-3.88-4.527-6.467-3.88c-2.587,0.647,1.293,5.821,1.293,5.821s-4.204-0.323-7.114,3.557"/>
		<path style="fill:#FFFFFF;stroke:#263238;stroke-linecap:round;stroke-linejoin:round;stroke-miterlimit:10;" d="M269.833,205.285
			c3.069-0.337,7.165-1.725,11.749-5.702l-3.812-4.478c-3.131,3.073-7.608,4.209-10.489,4.626
			C267.934,201.167,268.816,203.094,269.833,205.285z"/>
		<polygon style="fill:#92E3A9;stroke:#263238;stroke-linecap:round;stroke-linejoin:round;stroke-miterlimit:10;" points="
			340.478,193.266 347.682,202.365 340.595,260.831 350.452,270.31 358.517,261.167 350.715,202.744 357.918,189.854 
			346.165,182.271 		"/>
		<path style="fill:#FFFFFF;stroke:#263238;stroke-linecap:round;stroke-linejoin:round;stroke-miterlimit:10;" d="M336.411,170.227
			l-3.88,1.94l-4.366,7.276l7.761,20.373l13.339-8.489l14.31,9.216c0,0,0-20.858-1.213-23.283c-1.213-2.425-6.063-7.518-6.063-7.518
			L336.411,170.227z"/>
		<path style="fill:#FFFFFF;stroke:#263238;stroke-linecap:round;stroke-linejoin:round;stroke-miterlimit:10;" d="M334.806,160.929
			l1.363,14.876c0,0,8.731,15.28,11.884,16.735c3.153,1.455,8.246-12.612,9.216-14.794c0.97-2.183,1.455-9.459,1.455-9.459
			s-8.731-0.243-13.097-3.153s-10.429-6.063-10.429-6.063L334.806,160.929z"/>
		<path style="fill:#263238;stroke:#263238;stroke-linecap:round;stroke-linejoin:round;stroke-miterlimit:10;" d="M335.199,159.07
			l-0.393,1.859l1.363,14.876c0,0,0.435,0.761,1.143,1.955c8.797-0.943,17.114-3.959,21.048-5.56
			c0.243-2.093,0.364-3.914,0.364-3.914s-8.731-0.243-13.097-3.153S335.199,159.07,335.199,159.07z"/>
		<g>
			<path style="fill:#FFFFFF;stroke:#263238;stroke-linecap:round;stroke-linejoin:round;stroke-miterlimit:10;" d="M333.878,145.61
				c0,0-1.395-3.95-4.865-1.85c-3.471,2.1-2.485,6.586-1.047,8.702c1.438,2.116,3.877,3.81,5.358,4.092
				C334.805,156.837,333.878,145.61,333.878,145.61z"/>
			<path style="fill:#FFFFFF;stroke:#263238;stroke-linecap:round;stroke-linejoin:round;stroke-miterlimit:10;" d="M337.52,119.621
				c0,0-8.141,1.206-8.744,8.744c-0.603,7.538,3.618,27.137,6.03,32.564c2.412,5.427,4.523,6.935,9.347,10.553
				c4.824,3.618,14.171,1.809,16.583-0.301c2.412-2.111,5.126-7.84,5.729-17.79c0.603-9.95,0.603-14.473,0.302-20.503
				c-0.302-6.03-4.523-10.855-4.523-10.855s1.206-3.92-5.729-5.427C349.581,115.098,341.439,118.113,337.52,119.621z"/>
			<path style="fill:#D1D1D1;stroke:#263238;stroke-linecap:round;stroke-linejoin:round;stroke-miterlimit:10;" d="
				M364.053,160.929c0,0,0,0,0-0.905c0-0.904-3.92-3.92-7.538-4.523c-3.618-0.603-9.046,0.905-11.156,2.111
				c-2.111,1.206-2.714,4.221-2.714,4.221s-2.714,0-4.221-2.111c-1.507-2.111-3.618-15.377-3.015-16.282
				c0.603-0.905,3.92-5.126,3.618-6.633c-0.302-1.508-1.809-2.111-2.111-4.523c-0.302-2.412,3.92-4.824,3.92-4.824
				c2.714-2.111,9.347,0.603,13.568,0.302c4.221-0.302,6.644-2.202,6.644-2.202l1.926,2.028l1.014,3.041
				c0,0,0.517,0.923,1.723,2.129c0.937,0.937,0.575,0.496,1.109,1.274c-0.017-0.376-0.035-0.757-0.054-1.144
				c-0.301-6.03-4.523-10.855-4.523-10.855s1.206-3.92-5.729-5.427c-6.935-1.508-15.076,1.508-18.996,3.015
				c0,0-8.141,1.206-8.744,8.744c-0.603,7.538,3.618,27.137,6.03,32.564c2.412,5.427,4.523,6.935,9.347,10.553
				c4.824,3.618,14.171,1.809,16.583-0.301c1.817-1.59,3.804-5.234,4.932-11.187L364.053,160.929z"/>
			<path style="fill:none;stroke:#263238;stroke-width:2;stroke-linecap:round;stroke-linejoin:round;stroke-miterlimit:10;" d="
				M358.023,141.632l1.429-1.236c0,0,2.425-1.94,6.306,0.97"/>
			<path style="fill:none;stroke:#263238;stroke-linecap:round;stroke-linejoin:round;stroke-miterlimit:10;" d="M350.787,153.089
				c0,0,0.905,2.111,2.714,2.111c1.809,0,4.824-0.905,4.824-0.905l-0.603-10.855l0.302-1.809"/>
			<path style="fill:#263238;stroke:#263238;stroke-linecap:round;stroke-linejoin:round;stroke-miterlimit:10;" d="
				M349.253,158.986c0,0,1.512,3.479,3.479,3.781s3.327-2.571,3.327-2.571S352.126,160.196,349.253,158.986z"/>
			<path style="fill:none;stroke:#263238;stroke-linecap:round;stroke-linejoin:round;stroke-miterlimit:10;" d="M357.721,160.024
				c0,0-5.595,0.474-9.527-1.946"/>
			<path style="fill:#263238;" d="M351.192,144.467c0,1.139-0.597,2.062-1.334,2.062c-0.737,0-1.334-0.923-1.334-2.062
				c0-1.139,0.597-2.062,1.334-2.062C350.594,142.405,351.192,143.328,351.192,144.467z"/>
			<path style="fill:#263238;" d="M364.047,144.467c0,1.139-0.597,2.062-1.334,2.062c-0.737,0-1.334-0.923-1.334-2.062
				c0-1.139,0.597-2.062,1.334-2.062C363.45,142.405,364.047,143.328,364.047,144.467z"/>
			<path style="fill:none;stroke:#263238;stroke-width:2;stroke-linecap:round;stroke-linejoin:round;stroke-miterlimit:10;" d="
				M343.687,141.365c0,0,3.153-1.94,7.761-0.97"/>
		</g>
	</g>
</g>
<g id="Character_1">
	<g>
		<path style="fill:#263238;stroke:#263238;stroke-linecap:round;stroke-linejoin:round;stroke-miterlimit:10;" d="M192.859,401.934
			c0,0-5.166,40.363-6.135,44.238c-0.969,3.875-0.326,10.378-0.326,10.378s5.812,1.292,8.395,1.292c2.583,0,6.458,0,6.458,0
			s4.02-1.024,4.989-1.347s4.198,0.323,8.072,0.323c3.875,0,17.114,0.323,18.728-0.646s1.472-4.833-2.403-8.062
			s-13.619-4.773-14.911-6.388c-1.292-1.615-1.292-1.615-1.292-1.615l-2.583-4.521c0,0,3.286-6.528,2.64-10.08
			c-0.646-3.552-1.937-9.687-1.937-10.979c0-1.292,2.26-11.302,3.229-12.916c0.969-1.615-1.292-16.145-9.364-16.791
			C198.349,384.175,193.182,391.601,192.859,401.934z"/>
		<path style="fill:#666666;stroke:#263238;stroke-linecap:round;stroke-linejoin:round;stroke-miterlimit:10;" d="M227.087,442.62
			c0,0,5.812,3.875,7.75,4.521c1.937,0.646,11.947,3.875,13.239,5.489c1.292,1.615,1.615,4.844,1.615,4.844h-46.821
			c0,0-2.26-0.646-1.615-5.812S221.92,439.714,227.087,442.62z"/>
		<path style="fill:#263238;stroke:#263238;stroke-linecap:round;stroke-linejoin:round;stroke-miterlimit:10;" d="M184.464,271.482
			c0,0-3.229,20.989-0.646,29.061c2.583,8.073,7.427,12.916,7.427,12.916s4.521,48.758,4.521,56.185
			c0,7.427-4.521,17.76-3.875,28.738c0.646,10.979,7.104,43.269,7.104,47.467s0,6.458,0,6.458l2.906,2.583
			c0,0,17.437-9.041,18.728-10.01c1.292-0.969,5.489-2.26,6.458-2.26c0.969,0,0.646-0.969,0-3.552
			c-0.646-2.583-4.521-5.167-5.166-8.396c-0.646-3.229,0-14.853,0.323-17.76c0.323-2.906,5.812-25.509,6.781-37.779
			c0.969-12.27,4.843-36.811,4.843-48.758c0-11.947,0-35.519,0-35.519l0.323-16.468L184.464,271.482z"/>
		<path style="fill:#FFFFFF;stroke:#263238;stroke-linecap:round;stroke-linejoin:round;stroke-miterlimit:10;" d="M191.483,177.023
			c0,0-11.57,14.393-14.11,24.552c-2.54,10.159,1.129,31.607,1.693,33.583c0.564,1.975,2.54,18.908,2.54,27.092
			s0.564,11.853,3.951,12.699c3.386,0.847,35.558,5.08,41.484,4.797c5.926-0.282,11.288-3.104,12.699-5.926
			c1.411-2.822-1.411-26.245-3.669-39.509c-2.258-13.264-7.055-30.761-8.184-36.122c-1.129-5.362-9.877-12.982-11.006-14.393
			c-1.129-1.411-23.705-8.466-23.705-8.466L191.483,177.023z"/>
		<g>
			<path style="fill:#D1D1D1;stroke:#263238;stroke-linecap:round;stroke-linejoin:round;stroke-miterlimit:10;" d="
				M223.147,120.441c4.714,2.471,8.794,6.344,11.796,11.147c4.233,6.773,0,13.828-0.282,16.65c-0.282,2.822,1.975,5.644,3.669,7.055
				c1.693,1.411,0.564,3.387-1.129,4.233c-1.693,0.847-2.54,0.847-2.54,0.847s-2.258,10.442-3.387,12.417
				c-1.129,1.976-4.515,2.822-6.773,2.822c-2.258,0-7.055-0.564-7.055-0.564l-1.693,10.159l-20.883-10.442l0.847-8.749
				c0,0-8.466-13.828-9.595-25.962C184.406,121.62,209.111,113.083,223.147,120.441z"/>
			<polygon style="fill:#263238;stroke:#263238;stroke-linecap:round;stroke-linejoin:round;stroke-miterlimit:10;" points="
				217.447,175.048 212.817,172.074 216.267,179.356 			"/>
			<path style="fill:none;stroke:#263238;stroke-linecap:round;stroke-linejoin:round;stroke-miterlimit:10;" d="M231.892,163.351
				c0,0-2.943-0.736-4.047-2.207"/>
			<path style="fill:#263238;stroke:#263238;stroke-linecap:round;stroke-linejoin:round;stroke-miterlimit:10;" d="M229.608,125.07
				c-1.964-1.846-4.135-3.41-6.461-4.629c-14.037-7.357-38.741,1.179-37.026,19.614c0.918,9.873,6.693,20.865,8.814,24.62
				c1.308,0.167,3.029-0.208,5.86-0.916c4.515-1.129,6.208-6.491,6.208-6.491l1.976-5.08c0,0,2.822,0,3.669-2.258
				c0.847-2.258-1.411-5.926,1.411-7.902c2.822-1.975,7.337-0.564,6.491-5.644C219.847,132.164,221.683,125.805,229.608,125.07z"/>
			<path style="fill:#D1D1D1;stroke:#263238;stroke-linecap:round;stroke-linejoin:round;stroke-miterlimit:10;" d="
				M211.802,153.036c0,0-1.693-5.362-6.208-3.104c-4.515,2.258-1.411,7.62,0.564,11.288c1.975,3.669,6.491,2.258,6.491,2.258"/>
			<path style="fill:#263238;" d="M231.839,148.802c0,1.091-0.379,1.975-0.847,1.975s-0.847-0.884-0.847-1.975
				s0.379-1.975,0.847-1.975S231.839,147.711,231.839,148.802z"/>
			<path style="fill:none;stroke:#263238;stroke-linecap:round;stroke-linejoin:round;stroke-miterlimit:10;" d="M227.324,144.287
				c0,0,2.822-3.386,6.209-1.693"/>
		</g>
		<path style="fill:#92E3A9;stroke:#263238;stroke-linecap:round;stroke-linejoin:round;stroke-miterlimit:10;" d="M226.447,198.389
			l6.966,69.954l9.869,4.354l-0.58-9.289l-13.352-63.568C229.35,199.841,226.157,193.455,226.447,198.389z"/>
		<path style="fill:#92E3A9;stroke:#263238;stroke-linecap:round;stroke-linejoin:round;stroke-miterlimit:10;" d="M213.675,187.94
			l12.772,10.45c0,0,1.451-4.644,0.29-7.837s-9.855-6.756-9.855-6.756L213.675,187.94z"/>
		<polygon style="fill:#FFFFFF;stroke:#263238;stroke-linecap:round;stroke-linejoin:round;stroke-miterlimit:10;" points="
			193.459,171.379 218.857,182.949 215.127,193.745 191.483,177.023 		"/>
		<path style="fill:#FFFFFF;stroke:#263238;stroke-linecap:round;stroke-linejoin:round;stroke-miterlimit:10;" d="M242.32,212.532
			c0,0,7.289-0.061,10.921,3.814s5.086,6.781,4.117,10.414c-0.969,3.633-3.633,4.359-5.328,4.844
			c-1.695,0.484-4.117,0.727-9.687-7.265C236.774,216.347,237.938,212.835,242.32,212.532z"/>
		<path style="fill:#FFFFFF;stroke:#263238;stroke-linecap:round;stroke-linejoin:round;stroke-miterlimit:10;" d="M189.226,192.544
			c0,0-4.233,6.209-4.515,14.393c-0.282,8.184,1.693,11.288,4.233,12.135c2.54,0.847,25.117,17.497,31.607,20.601
			c6.491,3.104,21.354,11.423,25.587,8.883c4.233-2.54,9.595-4.798,9.595-12.135s-4.233-11.853-6.773-14.675
			c-2.54-2.822-17.968-11.987-22.765-16.785c-4.798-4.798-14.675-12.699-16.368-12.981"/>
		<g>
			<path style="fill:#D1D1D1;stroke:#263238;stroke-linecap:round;stroke-linejoin:round;stroke-miterlimit:10;" d="M242.32,212.532
				c0,0-2.03-2.342-3.279-2.186c-1.249,0.156-2.81,6.245-1.405,7.963s3.123,1.717,3.435,0.156
				C241.384,216.904,242.633,214.874,242.32,212.532z"/>
			<path style="fill:#D1D1D1;stroke:#263238;stroke-linecap:round;stroke-linejoin:round;stroke-miterlimit:10;" d="
				M245.287,214.718c0,0-1.352-1.559-2.183-1.456c-0.832,0.104-1.871,4.158-0.936,5.302c0.936,1.144,2.079,1.144,2.287,0.104
				C244.663,217.629,245.495,216.278,245.287,214.718z"/>
			<path style="fill:#D1D1D1;stroke:#263238;stroke-linecap:round;stroke-linejoin:round;stroke-miterlimit:10;" d="
				M238.105,209.254c0,0-2.03-2.342-3.279-2.186c-1.249,0.156-2.81,6.245-1.405,7.963c1.405,1.717,3.123,1.717,3.435,0.156
				C237.168,213.625,238.417,211.596,238.105,209.254z"/>
			<path style="fill:#D1D1D1;stroke:#263238;stroke-linecap:round;stroke-linejoin:round;stroke-miterlimit:10;" d="
				M234.045,205.663c0,0-2.03-2.342-3.279-2.186c-1.249,0.156-2.81,6.245-1.405,7.963c1.405,1.717,3.123,1.717,3.435,0.156
				C233.108,210.034,234.358,208.005,234.045,205.663z"/>
		</g>
		<path style="fill:#FFFFFF;stroke:#263238;stroke-linecap:round;stroke-linejoin:round;stroke-miterlimit:10;" d="M198.349,225.307
			c0,0-9.041,0-13.562-2.26"/>
	</g>
</g>
<g id="Icons">
	<g>
		<polyline style="fill:none;stroke:#263238;stroke-linecap:round;stroke-linejoin:round;stroke-miterlimit:10;" points="
			182.224,102.361 182.224,118.188 98.3,118.188 98.3,55.845 104.844,55.845 		"/>
		<polyline style="fill:none;stroke:#263238;stroke-linecap:round;stroke-linejoin:round;stroke-miterlimit:10;" points="
			111.821,55.845 182.224,55.845 182.224,97.71 		"/>
		
			<rect x="98.3" y="105.585" style="fill:none;stroke:#263238;stroke-linecap:round;stroke-linejoin:round;stroke-miterlimit:10;" width="83.924" height="12.603"/>
		
			<rect x="104.258" y="109.636" style="fill:none;stroke:#263238;stroke-linecap:round;stroke-linejoin:round;stroke-miterlimit:10;" width="72.008" height="4.502"/>
		<polygon style="fill:none;stroke:#263238;stroke-linecap:round;stroke-linejoin:round;stroke-miterlimit:10;" points="
			156.267,82.115 129.069,66.412 129.069,97.818 		"/>
	</g>
	<g>
		<g>
			<path style="fill:none;stroke:#263238;stroke-linecap:round;stroke-linejoin:round;stroke-miterlimit:10;" d="M534.87,54.411
				c6.069,3.635,11.105,8.815,14.566,14.997"/>
			<path style="fill:none;stroke:#263238;stroke-linecap:round;stroke-linejoin:round;stroke-miterlimit:10;" d="M482.02,113.777
				c-5.245-6.822-8.363-15.364-8.363-24.635c0-22.343,18.112-40.455,40.455-40.455c5.691,0,11.108,1.175,16.021,3.296"/>
			<path style="fill:none;stroke:#263238;stroke-linecap:round;stroke-linejoin:round;stroke-miterlimit:10;" d="M491.166,122.465
				c-1.602-1.105-3.121-2.323-4.544-3.643"/>
			<path style="fill:none;stroke:#263238;stroke-linecap:round;stroke-linejoin:round;stroke-miterlimit:10;" d="M554.54,87.639
				c0.018,0.499,0.027,1,0.027,1.503c0,22.343-18.112,40.455-40.455,40.455c-6.748,0-13.11-1.652-18.704-4.574"/>
			<path style="fill:none;stroke:#263238;stroke-linecap:round;stroke-linejoin:round;stroke-miterlimit:10;" d="M485.121,87.366
				c0.322-5.338,2.086-10.287,4.907-14.463"/>
			<path style="fill:none;stroke:#263238;stroke-linecap:round;stroke-linejoin:round;stroke-miterlimit:10;" d="M493.574,68.604
				c5.256-5.256,12.517-8.507,20.538-8.507c16.041,0,29.045,13.004,29.045,29.045s-13.004,29.045-29.045,29.045
				c-15.158,0-27.604-11.611-28.928-26.425"/>
			<path style="fill:none;stroke:#263238;stroke-linecap:round;stroke-linejoin:round;stroke-miterlimit:10;" d="M525.848,100.878
				c-3.004,3.004-7.153,4.861-11.736,4.861c-9.166,0-16.597-7.431-16.597-16.597s7.431-16.597,16.597-16.597
				c9.166,0,16.597,7.431,16.597,16.597c0,2.594-0.595,5.049-1.656,7.236"/>
			
				<circle style="fill:none;stroke:#263238;stroke-linecap:round;stroke-linejoin:round;stroke-miterlimit:10;" cx="514.112" cy="89.142" r="7.261"/>
		</g>
		<g>
			<polygon style="fill:none;stroke:#263238;stroke-linecap:round;stroke-linejoin:round;stroke-miterlimit:10;" points="
				546.64,79.13 555.411,84.874 573.25,79.7 571.033,72.054 			"/>
			<polygon style="fill:none;stroke:#263238;stroke-linecap:round;stroke-linejoin:round;stroke-miterlimit:10;" points="
				546.491,78.614 550.826,69.068 568.665,63.893 570.883,71.538 			"/>
			
				<line style="fill:none;stroke:#263238;stroke-width:2;stroke-linecap:round;stroke-linejoin:round;stroke-miterlimit:10;" x1="571.177" y1="71.7" x2="515.96" y2="87.716"/>
		</g>
	</g>
	<g>
		<g>
			
				<rect x="292.836" y="79.061" style="fill:none;stroke:#263238;stroke-linecap:round;stroke-linejoin:round;stroke-miterlimit:10;" width="11.277" height="24.927"/>
			
				<rect x="308.267" y="64.816" style="fill:none;stroke:#263238;stroke-linecap:round;stroke-linejoin:round;stroke-miterlimit:10;" width="11.277" height="39.171"/>
			
				<rect x="323.698" y="71.345" style="fill:none;stroke:#263238;stroke-linecap:round;stroke-linejoin:round;stroke-miterlimit:10;" width="11.277" height="32.643"/>
			
				<rect x="339.129" y="55.914" style="fill:none;stroke:#263238;stroke-linecap:round;stroke-linejoin:round;stroke-miterlimit:10;" width="11.277" height="48.074"/>
			
				<rect x="354.56" y="49.385" style="fill:none;stroke:#263238;stroke-linecap:round;stroke-linejoin:round;stroke-miterlimit:10;" width="11.277" height="54.603"/>
		</g>
		<g>
			
				<line style="fill:none;stroke:#263238;stroke-linecap:round;stroke-linejoin:round;stroke-miterlimit:10;" x1="290.836" y1="103.869" x2="286.327" y2="103.869"/>
			
				<line style="fill:none;stroke:#263238;stroke-linecap:round;stroke-linejoin:round;stroke-miterlimit:10;" x1="373.134" y1="103.869" x2="368.624" y2="103.869"/>
		</g>
		<g>
			
				<line style="fill:none;stroke:#263238;stroke-linecap:round;stroke-linejoin:round;stroke-miterlimit:10;" x1="290.836" y1="98.514" x2="286.327" y2="98.514"/>
			
				<line style="fill:none;stroke:#263238;stroke-linecap:round;stroke-linejoin:round;stroke-miterlimit:10;" x1="373.134" y1="98.514" x2="368.624" y2="98.514"/>
		</g>
		<g>
			
				<line style="fill:none;stroke:#263238;stroke-linecap:round;stroke-linejoin:round;stroke-miterlimit:10;" x1="290.836" y1="93.159" x2="286.327" y2="93.159"/>
			
				<line style="fill:none;stroke:#263238;stroke-linecap:round;stroke-linejoin:round;stroke-miterlimit:10;" x1="373.134" y1="93.159" x2="368.624" y2="93.159"/>
		</g>
		<g>
			
				<line style="fill:none;stroke:#263238;stroke-linecap:round;stroke-linejoin:round;stroke-miterlimit:10;" x1="290.836" y1="87.804" x2="286.327" y2="87.804"/>
			
				<line style="fill:none;stroke:#263238;stroke-linecap:round;stroke-linejoin:round;stroke-miterlimit:10;" x1="373.134" y1="87.804" x2="368.624" y2="87.804"/>
		</g>
		<g>
			
				<line style="fill:none;stroke:#263238;stroke-linecap:round;stroke-linejoin:round;stroke-miterlimit:10;" x1="290.836" y1="82.449" x2="286.327" y2="82.449"/>
			
				<line style="fill:none;stroke:#263238;stroke-linecap:round;stroke-linejoin:round;stroke-miterlimit:10;" x1="373.134" y1="82.449" x2="368.624" y2="82.449"/>
		</g>
		<g>
			
				<line style="fill:none;stroke:#263238;stroke-linecap:round;stroke-linejoin:round;stroke-miterlimit:10;" x1="290.836" y1="77.094" x2="286.327" y2="77.094"/>
			
				<line style="fill:none;stroke:#263238;stroke-linecap:round;stroke-linejoin:round;stroke-miterlimit:10;" x1="373.134" y1="77.094" x2="368.624" y2="77.094"/>
		</g>
		<g>
			
				<line style="fill:none;stroke:#263238;stroke-linecap:round;stroke-linejoin:round;stroke-miterlimit:10;" x1="290.836" y1="71.739" x2="286.327" y2="71.739"/>
			
				<line style="fill:none;stroke:#263238;stroke-linecap:round;stroke-linejoin:round;stroke-miterlimit:10;" x1="373.134" y1="71.739" x2="368.624" y2="71.739"/>
		</g>
		<g>
			
				<line style="fill:none;stroke:#263238;stroke-linecap:round;stroke-linejoin:round;stroke-miterlimit:10;" x1="290.836" y1="66.384" x2="286.327" y2="66.384"/>
			
				<line style="fill:none;stroke:#263238;stroke-linecap:round;stroke-linejoin:round;stroke-miterlimit:10;" x1="373.134" y1="66.384" x2="368.624" y2="66.384"/>
		</g>
		<g>
			
				<line style="fill:none;stroke:#263238;stroke-linecap:round;stroke-linejoin:round;stroke-miterlimit:10;" x1="290.836" y1="61.029" x2="286.327" y2="61.029"/>
			
				<line style="fill:none;stroke:#263238;stroke-linecap:round;stroke-linejoin:round;stroke-miterlimit:10;" x1="373.134" y1="61.029" x2="368.624" y2="61.029"/>
		</g>
		<g>
			
				<line style="fill:none;stroke:#263238;stroke-linecap:round;stroke-linejoin:round;stroke-miterlimit:10;" x1="290.836" y1="55.674" x2="286.327" y2="55.674"/>
			
				<line style="fill:none;stroke:#263238;stroke-linecap:round;stroke-linejoin:round;stroke-miterlimit:10;" x1="373.134" y1="55.674" x2="368.624" y2="55.674"/>
		</g>
		<g>
			<g>
				<polyline style="fill:none;stroke:#263238;stroke-width:2;stroke-linecap:round;stroke-linejoin:round;" points="297.232,70 
					313.232,52.5 329.232,66 343.732,46.5 354.036,39.729 				"/>
				<g>
					<polygon style="fill:#263238;" points="355.859,45.691 361.232,35 349.287,35.69 					"/>
				</g>
			</g>
		</g>
	</g>
</g>
<g id="Floor">
	
		<line style="fill:none;stroke:#263238;stroke-linecap:round;stroke-linejoin:round;stroke-miterlimit:10;" x1="15" y1="457.473" x2="687" y2="457.473"/>
</g>
</svg>
